PathFileType	4	(X/Y/Z)	/Users/itak/Documents/Research/Walk-IL/dataset/trc/00294_00010.trc
DataRate	CameraRate	NumFrames	NumMarkers	Units	OrigDataRate	OrigDataStartFrame	OrigNumFrames
100.000000	100.000000	4	56	mm	100.000000	0	688
Frame#	Time	RPSI			LPSI			L3			STRN			T10			C7			CLAV			RBAK			LBAK			LSHO			LUPA			LAEL			LAOL			LWTS			LWPS			LFRA			LHTS			RSHO			RUPA			RAEL			RAOL			RWTS			RWPS			RFRA			RIFD			RBHD			LFHD			RFHD			LBHD			RHIP			RASI			LASI			LKNE			LTHI			LANK			LTIP			LTOE			LMT1			LMT5			LHEE			RKNE			RTHI			RANK			RTIP			RTOE			RMT1			RMT5			RHEE			LHPS			RHTS			RHPS			LIFD			LHIP			*53			*54			*55			
		X1	Y1	Z1	X2	Y2	Z2	X3	Y3	Z3	X4	Y4	Z4	X5	Y5	Z5	X6	Y6	Z6	X7	Y7	Z7	X8	Y8	Z8	X9	Y9	Z9	X10	Y10	Z10	X11	Y11	Z11	X12	Y12	Z12	X13	Y13	Z13	X14	Y14	Z14	X15	Y15	Z15	X16	Y16	Z16	X17	Y17	Z17	X18	Y18	Z18	X19	Y19	Z19	X20	Y20	Z20	X21	Y21	Z21	X22	Y22	Z22	X23	Y23	Z23	X24	Y24	Z24	X25	Y25	Z25	X26	Y26	Z26	X27	Y27	Z27	X28	Y28	Z28	X29	Y29	Z29	X30	Y30	Z30	X31	Y31	Z31	X32	Y32	Z32	X33	Y33	Z33	X34	Y34	Z34	X35	Y35	Z35	X36	Y36	Z36	X37	Y37	Z37	X38	Y38	Z38	X39	Y39	Z39	X40	Y40	Z40	X41	Y41	Z41	X42	Y42	Z42	X43	Y43	Z43	X44	Y44	Z44	X45	Y45	Z45	X46	Y46	Z46	X47	Y47	Z47	X48	Y48	Z48	X49	Y49	Z49	X50	Y50	Z50	X51	Y51	Z51	X52	Y52	Z52	X53	Y53	Z53	X54	Y54	Z54	X55	Y55	Z55	X56	Y56	Z56	

1	0	416.2038269042969	1012.373901367188	1184.221557617188	402.7390441894531	1003.345764160156	1358.51904296875	392.0602416992188	1074.42626953125	1272.037841796875	144.2365112304688	1250.615600585938	1264.662841796875	408.3401489257812	1191.330078125	1272.723510742188	361.0134887695312	1435.424926757812	1289.941650390625	203.972900390625	1353.069946289062	1272.463745117188	419.0645141601562	1300.637451171875	1213.27490234375	370.0982055664062	1398.17333984375	1393.111694335938	276.6711120605469	1404.263427734375	1440.111450195312	302.7582092285156	1286.942504882812	1514.743408203125	295.5034790039062	1083.066772460938	1528.0478515625	356.7823181152344	1068.921508789062	1469.03515625	213.1298370361328	862.945556640625	1477.125366210938	244.6343231201172	850.7576904296875	1540.588500976562	279.0877075195312	978.8860473632812	1536.520874023438	187.4918365478516	764.7224731445312	1497.221801757812	303.2575073242188	1414.230224609375	1127.041870117188	312.5419921875	1355.051025390625	1059.4248046875	300.5774536132812	1086.050903320312	1012.655090332031	348.0411682128906	1078.475463867188	1094.464599609375	200.4345703125	867.2902221679688	1088.698974609375	228.6241760253906	859.1568603515625	1010.067993164062	269.9452209472656	1019.392272949219	1007.836730957031	186.9920349121094	681.5789184570312	1096.02685546875	330.7761535644531	1603.392211914062	1223.738525390625	136.2593841552734	1620.03466796875	1307.883911132812	154.5594635009766	1618.466796875	1216.502075195312	301.5735168457031	1594.708129882812	1365.499145507812	321.7680358886719	959.740234375	1075.376586914062	198.3521423339844	960.1724243164062	1136.06201171875	185.1357574462891	960.7283935546875	1389.755126953125	284.0479736328125	484.3524780273438	1405.103271484375	282.7391357421875	626.0489501953125	1428.938720703125	388.1186828613281	46.93862152099609	1389.108520507812	340.250732421875	261.905517578125	1406.38037109375	184.2976379394531	39.43574905395508	1314.737426757812	257.2312316894531	32.32292175292969	1278.921264648438	264.6860656738281	42.25397491455078	1391.375366210938	437.2353210449219	42.92303848266602	1331.81884765625	305.5140991210938	484.4394226074219	1115.9658203125	270.4572448730469	746.5166015625	1077.30078125	377.1746215820312	44.830078125	1149.970336914062	303.2931518554688	361.4874267578125	1129.346557617188	179.1128692626953	43.27554321289062	1196.322143554688	236.8387145996094	38.19263458251953	1237.315185546875	273.1865844726562	37.74176788330078	1126.036499023438	428.1300964355469	35.95951461791992	1198.7646484375	239.7352600097656	762.3610229492188	1536.72021484375	162.3139190673828	753.5458374023438	1081.02099609375	200.4624176025391	748.3089599609375	1021.753295898438	206.8016357421875	679.8651733398438	1479.73779296875	327.2393188476562	951.6430053710938	1447.977661132812	nan	nan	nan	nan	nan	nan	nan	nan	nan	
2	0.01	416.2567749023438	1012.369018554688	1184.336669921875	402.7272338867188	1003.313842773438	1358.605712890625	392.0432434082031	1074.43505859375	1272.129516601562	144.2186889648438	1250.674438476562	1264.706909179688	408.3001708984375	1191.305541992188	1272.787353515625	361.0801086425781	1435.397216796875	1289.9990234375	203.9947357177734	1353.147094726562	1272.544677734375	419.0846557617188	1300.607788085938	1213.33203125	370.1228332519531	1398.126098632812	1393.099853515625	276.7185974121094	1404.269775390625	1440.147705078125	302.7004089355469	1286.94775390625	1514.843872070312	295.321533203125	1083.097290039062	1528.221069335938	356.6383361816406	1068.886352539062	1469.097412109375	212.4462280273438	863.14306640625	1477.218627929688	243.9571990966797	850.828369140625	1540.741088867188	278.7750244140625	978.988525390625	1536.678588867188	186.6561431884766	764.9984741210938	1497.278442382812	303.350830078125	1414.271728515625	1127.101684570312	312.6074829101562	1355.110961914062	1059.484008789062	300.6163940429688	1086.131713867188	1012.678100585938	348.0888671875	1078.54833984375	1094.51953125	200.4141082763672	867.3978881835938	1088.700561523438	228.6496429443359	859.2567749023438	1010.028869628906	270.0181884765625	1019.496398925781	1007.830383300781	187.0711364746094	681.6834106445312	1095.955444335938	330.8189392089844	1603.42724609375	1223.7900390625	136.3438110351562	1620.018432617188	1308.09619140625	154.529541015625	1618.49853515625	1216.736938476562	301.7095031738281	1594.684448242188	1365.555541992188	321.8608093261719	959.7813110351562	1075.443969726562	198.4452514648438	960.1980590820312	1136.125244140625	185.0283355712891	960.7493286132812	1389.916137695312	284.1924133300781	484.4130859375	1405.214721679688	282.7076110839844	625.9544067382812	1428.941162109375	388.1459350585938	46.9001579284668	1389.15478515625	340.3355102539062	261.880126953125	1406.464477539062	184.3555755615234	39.50134658813477	1314.786865234375	257.23388671875	32.35342025756836	1278.934936523438	264.6893920898438	42.21609115600586	1391.44580078125	437.2615661621094	42.8719596862793	1331.85205078125	305.4042053222656	484.4638977050781	1115.9853515625	270.4338989257812	746.5502319335938	1077.331665039062	377.1789245605469	44.85589599609375	1149.935668945312	303.1595153808594	361.5017395019531	1129.3623046875	179.1121520996094	43.27509689331055	1196.326416015625	236.8356018066406	38.19697189331055	1237.313598632812	273.1722717285156	37.76205444335938	1126.043579101562	428.1247253417969	35.9634895324707	1198.770263671875	238.7979583740234	762.319580078125	1536.809204101562	162.2640533447266	753.6934204101562	1081.010131835938	200.5230407714844	748.475830078125	1021.661315917969	205.9933013916016	680.1175537109375	1479.825561523438	327.004638671875	951.8076782226562	1448.25732421875	nan	nan	nan	nan	nan	nan	nan	nan	nan	
3	0.02	416.3154602050781	1012.363159179688	1184.46826171875	402.7012634277344	1003.271240234375	1358.713134765625	392.0201110839844	1074.446411132812	1272.23779296875	144.1910095214844	1250.75244140625	1264.7548828125	408.2506103515625	1191.275756835938	1272.868408203125	361.1593933105469	1435.366333007812	1290.065307617188	204.0165100097656	1353.240112304688	1272.629638671875	419.1071166992188	1300.573608398438	1213.401977539062	370.1419982910156	1398.068115234375	1393.08154296875	276.7626037597656	1404.282836914062	1440.187255859375	302.6175537109375	1286.965576171875	1514.957153320312	295.0736389160156	1083.133911132812	1528.4375	356.442138671875	1068.837890625	1469.206298828125	211.5877227783203	863.3948974609375	1477.369262695312	243.1178741455078	850.9371948242188	1540.934326171875	278.3620300292969	979.1153564453125	1536.884155273438	185.6162719726562	765.3587646484375	1497.361328125	303.4681701660156	1414.322875976562	1127.168823242188	312.6939086914062	1355.182250976562	1059.55126953125	300.6804504394531	1086.230834960938	1012.70068359375	348.1511840820312	1078.635131835938	1094.58740234375	200.4002990722656	867.529296875	1088.669311523438	228.6902923583984	859.3815307617188	1009.957946777344	270.1228332519531	1019.622924804688	1007.812805175781	187.1843414306641	681.8024291992188	1095.814331054688	330.8725280761719	1603.468994140625	1223.84619140625	136.4616088867188	1620.0068359375	1308.3564453125	154.5037994384766	1618.54833984375	1217.0224609375	301.8739013671875	1594.656372070312	1365.621948242188	321.9736938476562	959.83203125	1075.52099609375	198.5650482177734	960.2286987304688	1136.203002929688	184.8722991943359	960.781005859375	1390.117431640625	284.3754577636719	484.4840698242188	1405.34130859375	282.6515197753906	625.81884765625	1428.920532226562	388.1753845214844	46.85245132446289	1389.201904296875	340.4559936523438	261.8526000976562	1406.567504882812	184.4229736328125	39.57833862304688	1314.845336914062	257.2422485351562	32.38629531860352	1278.95361328125	264.697265625	42.1788215637207	1391.524047851562	437.2922973632812	42.81331253051758	1331.888916015625	305.2620849609375	484.4953918457031	1116.008422851562	270.3923950195312	746.5892333984375	1077.36669921875	377.1757507324219	44.88961029052734	1149.911743164062	302.9825744628906	361.5211486816406	1129.376098632812	179.111572265625	43.27421951293945	1196.332275390625	236.8311614990234	38.20133209228516	1237.315185546875	273.1588439941406	37.78327941894531	1126.0498046875	428.1264953613281	35.97285842895508	1198.778076171875	237.6485900878906	762.3064575195312	1536.950073242188	162.2267150878906	753.8479614257812	1080.938354492188	200.6053924560547	748.6791381835938	1021.512756347656	204.9878234863281	680.44775390625	1479.9482421875	326.688232421875	952.0204467773438	1448.608032226562	nan	nan	nan	nan	nan	nan	nan	nan	nan	
4	0.03	416.3745727539062	1012.356628417969	1184.605102539062	402.6582336425781	1003.220092773438	1358.835083007812	391.9900512695312	1074.46044921875	1272.355346679688	144.1509704589844	1250.847290039062	1264.799926757812	408.1929931640625	1191.244018554688	1272.963134765625	361.2445373535156	1435.335083007812	1290.134155273438	204.0338897705078	1353.343505859375	1272.706420898438	419.1300048828125	1300.537963867188	1213.480712890625	370.14697265625	1398.002563476562	1393.056396484375	276.7927856445312	1404.304565429688	1440.224975585938	302.5068969726562	1287.000732421875	1515.071411132812	294.759033203125	1083.17578125	1528.6865234375	356.1910705566406	1068.77783203125	1469.373046875	210.6125183105469	863.682373046875	1477.574829101562	242.1548004150391	851.0899047851562	1541.158325195312	277.852783203125	979.2592163085938	1537.12890625	184.4199371337891	765.7819213867188	1497.476196289062	303.603759765625	1414.381103515625	1127.235961914062	312.7994689941406	1355.260131835938	1059.619262695312	300.7754821777344	1086.342651367188	1012.717468261719	348.2251892089844	1078.729736328125	1094.664794921875	200.3971862792969	867.6780395507812	1088.59033203125	228.7500152587891	859.5257568359375	1009.846313476562	270.2619934082031	1019.763793945312	1007.778503417969	187.3210906982422	681.9295043945312	1095.586181640625	330.9341430664062	1603.514770507812	1223.900512695312	136.6131286621094	1620.004638671875	1308.650390625	154.4883117675781	1618.61865234375	1217.3408203125	302.0557250976562	1594.626098632812	1365.693115234375	322.0968017578125	959.8890380859375	1075.601928710938	198.7060241699219	960.2625732421875	1136.290771484375	184.6578216552734	960.8296508789062	1390.35302734375	284.5870361328125	484.5549011230469	1405.47021484375	282.5671691894531	625.6399536132812	1428.866943359375	388.2018432617188	46.79726028442383	1389.242309570312	340.6126708984375	261.8258666992188	1406.6845703125	184.4949645996094	39.66191101074219	1314.908447265625	257.2574462890625	32.41939926147461	1278.976318359375	264.7120971679688	42.14635848999023	1391.604858398438	437.3267517089844	42.75293731689453	1331.926025390625	305.0899353027344	484.5317993164062	1116.033447265625	270.3280029296875	746.6298217773438	1077.402099609375	377.1627502441406	44.93078994750977	1149.904663085938	302.7662963867188	361.5442504882812	1129.385498046875	179.1107330322266	43.27232360839844	1196.340087890625	236.8240966796875	38.20553207397461	1237.320678710938	273.1480712890625	37.80441284179688	1126.0537109375	428.13671875	35.98882675170898	1198.787353515625	236.3437652587891	762.3333129882812	1537.146240234375	162.2206268310547	753.9852905273438	1080.775024414062	200.7058868408203	748.9057006835938	1021.297790527344	203.8315734863281	680.8357543945312	1480.109985351562	326.2867126464844	952.2803344726562	1449.017700195312	nan	nan	nan	nan	nan	nan	nan	nan	nan	
